<svg width="34" height="35" viewBox="0 0 34 35" fill="none" xmlns="http://www.w3.org/2000/svg">
<path fill-rule="evenodd" clip-rule="evenodd" d="M33.4401 17.53C33.4283 18.3559 33.3715 19.1804 33.2701 20C33.2499 20.1617 33.2199 20.322 33.1801 20.48C33.0422 21.3038 32.8314 22.1136 32.5501 22.9C31.8238 25.0473 30.6682 27.0243 29.1536 28.7107C27.639 30.3972 25.7972 31.7579 23.7401 32.71L23.3401 32.9C21.2649 33.8573 19.0054 34.3488 16.7201 34.34C13.4029 34.3499 10.1573 33.3758 7.39379 31.5409C4.63028 29.7059 2.47304 27.0927 1.19493 24.0316C-0.0831873 20.9705 -0.424756 17.5991 0.213425 14.3438C0.851607 11.0886 2.44087 8.09572 4.78019 5.74381C7.11951 3.3919 10.1038 1.78659 13.3556 1.13094C16.6073 0.475298 19.9805 0.798763 23.0484 2.06043C26.1163 3.32209 28.7412 5.46527 30.5909 8.21889C32.4406 10.9725 33.4322 14.2128 33.4401 17.53Z" fill="#FFC800"/>
<g style="mix-blend-mode:multiply">
<path d="M32.5502 22.9C31.8239 25.0472 30.6683 27.0242 29.1537 28.7107C27.6391 30.3972 25.7973 31.7579 23.7402 32.71L23.3402 32.9C22.3363 33.3604 21.2873 33.7157 20.2102 33.96L11.1002 25.96L14.8302 22.67L8.46021 16.41L17.7602 17.57L17.2202 9.46002L23.3902 15.46L25.1702 15.83L32.5502 22.9Z" fill="#D3D3D3"/>
</g>
<path d="M23.8701 14.73L20.0001 14.81L17.8701 9.93004C17.774 9.70458 17.6138 9.51232 17.4093 9.3772C17.2049 9.24207 16.9652 9.17004 16.7201 9.17004C16.4725 9.1702 16.2304 9.24332 16.0241 9.38027C15.8178 9.51722 15.6564 9.71191 15.5601 9.94004L13.5601 14.73H9.56012C9.30058 14.7325 9.04813 14.815 8.83727 14.9664C8.62641 15.1177 8.46744 15.3305 8.38209 15.5756C8.29674 15.8208 8.28916 16.0863 8.36041 16.3358C8.43165 16.5854 8.57823 16.8069 8.78012 16.97L12.1101 19.58L10.7401 24.38C10.6692 24.6266 10.6753 24.8889 10.7575 25.132C10.8397 25.375 10.9941 25.5871 11.2001 25.74C11.4134 25.8819 11.6639 25.9576 11.9201 25.9576C12.1763 25.9576 12.4268 25.8819 12.6401 25.74L16.6401 23L20.7901 25.81C20.9957 25.9437 21.2349 26.0165 21.4801 26.02C21.7485 26.017 22.0098 25.9334 22.2301 25.78C22.4361 25.6271 22.5906 25.415 22.6728 25.172C22.755 24.9289 22.761 24.6666 22.6901 24.42L21.3001 19.65L24.6501 16.97C24.852 16.8069 24.9986 16.5854 25.0698 16.3358C25.1411 16.0863 25.1335 15.8208 25.0482 15.5756C24.9628 15.3305 24.8038 15.1177 24.593 14.9664C24.3821 14.815 24.1297 14.7325 23.8701 14.73Z" fill="#FFF8F0"/>
</svg>
