<svg width="34" height="34" viewBox="0 0 34 34" fill="none" xmlns="http://www.w3.org/2000/svg">
<path fill-rule="evenodd" clip-rule="evenodd" d="M33.4501 16.81C33.4364 17.6324 33.3797 18.4535 33.2801 19.27C33.1901 19.52 33.1901 19.78 33.1101 20.03C33.1025 20.2662 33.0445 20.498 32.9401 20.71C32.2901 23.4533 30.9506 25.9852 29.0484 28.0659C27.1461 30.1466 24.7442 31.7073 22.0701 32.6C21.7468 32.7194 21.4115 32.8032 21.0701 32.85C20.2615 33.1862 19.4037 33.3888 18.5301 33.45C17.9359 33.5166 17.3379 33.5433 16.7401 33.53C13.4186 33.5419 10.1685 32.5672 7.4017 30.7295C4.63492 28.8918 2.47617 26.2739 1.19916 23.2077C-0.0778512 20.1415 -0.415597 16.7652 0.228748 13.5068C0.873093 10.2485 2.47051 7.25482 4.81844 4.90549C7.16637 2.55615 10.1591 0.956948 13.417 0.310654C16.675 -0.335641 20.0516 8.4877e-05 23.1185 1.27526C26.1854 2.55044 28.8046 4.70763 30.644 7.4733C32.4833 10.239 33.46 13.4886 33.4501 16.81Z" fill="#FFC800"/>
<g style="mix-blend-mode:multiply">
<path d="M11.0001 12.37H10.8101C10.9869 12.3086 11.1729 12.2782 11.3601 12.28L11.4401 12.35L11.0001 12.37Z" fill="#D3D3D3"/>
</g>
<g style="mix-blend-mode:multiply">
<path d="M33.1 20C33.0943 20.2353 33.0399 20.4668 32.94 20.68C32.2958 23.4281 30.9585 25.9654 29.0558 28.0503C27.153 30.1351 24.748 31.698 22.07 32.59C21.7485 32.717 21.4127 32.8043 21.07 32.85C19.6 31.37 12.14 23.92 10.83 22.48C10.2703 22.43 9.74957 22.1724 9.3702 21.7579C8.99083 21.3434 8.7803 20.8019 8.78003 20.24V13.31C8.78001 12.7193 9.01326 12.1526 9.42902 11.7331C9.84479 11.3136 10.4094 11.0752 11 11.07H20.58C20.875 11.0687 21.1674 11.1256 21.4403 11.2376C21.7132 11.3496 21.9614 11.5144 22.1704 11.7225C22.3795 11.9306 22.5454 12.178 22.6586 12.4504C22.7718 12.7229 22.83 13.015 22.83 13.31V13.55L24.39 12.45C24.5733 12.3187 24.7809 12.2254 25.0007 12.1756C25.2206 12.1258 25.4481 12.1205 25.67 12.16C26.0691 12.2266 26.4313 12.4334 26.6916 12.7432C26.9519 13.0529 27.0932 13.4454 27.09 13.85V14.07C28.43 15.39 30.75 17.73 33.1 20Z" fill="#D3D3D3"/>
</g>
<path d="M26.79 12.86C26.5271 12.4891 26.128 12.2374 25.68 12.16C25.4581 12.1205 25.2305 12.1258 25.0107 12.1756C24.7909 12.2254 24.5832 12.3187 24.4 12.45L22.84 13.55V13.31C22.84 13.015 22.7817 12.7229 22.6685 12.4504C22.5553 12.178 22.3895 11.9306 22.1804 11.7225C21.9713 11.5144 21.7232 11.3496 21.4503 11.2376C21.1774 11.1256 20.885 11.0687 20.59 11.07H11C10.705 11.0687 10.4126 11.1256 10.1397 11.2376C9.86679 11.3496 9.61868 11.5144 9.40961 11.7225C9.20055 11.9306 9.03466 12.178 8.92146 12.4504C8.80827 12.7229 8.75 13.015 8.75 13.31V20.24C8.75027 20.8019 8.9608 21.3434 9.34017 21.7579C9.71954 22.1724 10.2403 22.43 10.8 22.48H20.58C21.1324 22.4785 21.665 22.2738 22.0762 21.905C22.4874 21.5362 22.7486 21.029 22.81 20.48L24.31 21.48C24.5618 21.682 24.8657 21.8086 25.1864 21.8451C25.5072 21.8817 25.8317 21.8267 26.1225 21.6865C26.4133 21.5463 26.6585 21.3267 26.8297 21.053C27.0009 20.7793 27.0912 20.4628 27.09 20.14V13.85C27.0933 13.4971 26.9886 13.1516 26.79 12.86ZM25.79 20.24C25.7808 20.3166 25.7516 20.3894 25.7053 20.4511C25.6591 20.5129 25.5974 20.5614 25.5265 20.5918C25.4556 20.6222 25.3779 20.6334 25.3013 20.6243C25.2247 20.6152 25.1518 20.5861 25.09 20.54L22.56 18.75C22.4573 18.6883 22.3398 18.6557 22.22 18.6557C22.1002 18.6557 21.9827 18.6883 21.88 18.75C21.7755 18.8043 21.6877 18.8861 21.6261 18.9865C21.5644 19.0869 21.5312 19.2022 21.53 19.32V20.32C21.5303 20.5767 21.4319 20.8238 21.255 21.01C21.0781 21.1961 20.8365 21.3071 20.58 21.32H11C10.7435 21.3071 10.5019 21.1961 10.325 21.01C10.1481 20.8238 10.0497 20.5767 10.05 20.32V13.31C10.0493 13.1852 10.0738 13.0616 10.1219 12.9465C10.17 12.8314 10.2408 12.7272 10.33 12.64L10.47 12.53C10.5234 12.4883 10.5846 12.4577 10.65 12.44H10.77H10.96H20.54C20.6643 12.4386 20.7876 12.462 20.9028 12.5086C21.018 12.5553 21.1228 12.6243 21.2112 12.7117C21.2995 12.7991 21.3696 12.9032 21.4175 13.0179C21.4654 13.1326 21.49 13.2557 21.49 13.38V14.8C21.4931 14.915 21.5267 15.0272 21.5874 15.125C21.6481 15.2229 21.7337 15.3028 21.8354 15.3567C21.9371 15.4106 22.0513 15.4366 22.1663 15.4319C22.2813 15.4272 22.393 15.392 22.49 15.33L23.2 14.83L25.07 13.51C25.1144 13.4783 25.1647 13.4557 25.2179 13.4437C25.2712 13.4317 25.3263 13.4304 25.38 13.44C25.4881 13.4609 25.5844 13.5215 25.65 13.61C25.6984 13.6804 25.7229 13.7645 25.72 13.85L25.79 20.24Z" fill="#FFF8F0"/>
</svg>
