<svg width="34" height="34" viewBox="0 0 34 34" fill="none" xmlns="http://www.w3.org/2000/svg">
<path fill-rule="evenodd" clip-rule="evenodd" d="M33.3601 16.94V17.26C33.3601 17.99 33.2701 18.67 33.1901 19.43C32.7575 22.2305 31.6227 24.8759 29.8916 27.1193C28.1604 29.3628 25.8893 31.1314 23.2901 32.26C21.217 33.2128 18.9617 33.7041 16.6801 33.7H15.9401C12.6682 33.5629 9.5086 32.468 6.85344 30.5512C4.19828 28.6343 2.16446 25.98 1.0044 22.9176C-0.155658 19.8552 -0.390881 16.5195 0.327925 13.3246C1.04673 10.1297 2.68792 7.21626 5.0478 4.94579C7.40768 2.67532 10.3823 1.14783 13.6026 0.552901C16.8229 -0.0420315 20.147 0.321788 23.1623 1.59921C26.1776 2.87662 28.7515 5.01139 30.5644 7.73857C32.3773 10.4657 33.3494 13.6653 33.3601 16.94Z" fill="#8E68C0"/>
<g style="mix-blend-mode:multiply">
<path d="M33.3601 17.26C33.3601 17.99 33.2701 18.67 33.1901 19.43C32.7575 22.2305 31.6227 24.8759 29.8916 27.1193C28.1605 29.3628 25.8894 31.1313 23.2901 32.26C21.217 33.2128 18.9617 33.7041 16.6801 33.7H16.1701C13.5801 31.14 8.24012 25.78 8.12012 25.6C8.27012 23.38 8.34012 20.4 8.36012 17.36C8.36012 16.88 9.83012 16.69 10.5401 17.22C10.8801 17.47 10.4201 18.94 10.7101 18.68C12.1701 17.36 13.9601 17.97 14.8401 17.36C15.7201 16.75 14.8401 12.66 14.9101 11.19C15.0001 8.26 17.0001 8.58 19.4001 8.57C21.6301 8.57 24.2401 8.05 25.1201 9.02C25.4001 9.26 31.6801 15.49 33.3601 17.26Z" fill="#D3D3D3"/>
</g>
<path d="M23.59 8.26001H16.44C15.9608 8.26528 15.5029 8.45935 15.1659 8.8001C14.8289 9.14084 14.6399 9.60076 14.64 10.08V16.97C14.64 17.0187 14.6214 17.0656 14.5879 17.1009C14.5544 17.1363 14.5086 17.1574 14.46 17.16H13C12.7721 17.1582 12.5462 17.2015 12.3351 17.2873C12.124 17.3731 11.932 17.4998 11.77 17.66L11.29 18.09C11.2536 18.121 11.2077 18.1386 11.16 18.14H11.09C11.0575 18.1278 11.0295 18.1059 11.0099 18.0773C10.9902 18.0487 10.9798 18.0147 10.98 17.98V16.98C10.9774 16.8827 10.9376 16.79 10.8688 16.7212C10.8 16.6523 10.7073 16.6125 10.61 16.61H8.33997C8.24264 16.6125 8.14999 16.6523 8.08114 16.7212C8.01229 16.79 7.9725 16.8827 7.96997 16.98V25.32C7.96994 25.4191 8.0086 25.5143 8.07771 25.5852C8.14683 25.6562 8.24093 25.6974 8.33997 25.7H10.57C10.669 25.6974 10.7631 25.6562 10.8322 25.5852C10.9013 25.5143 10.94 25.4191 10.94 25.32V24.68C10.9402 24.6479 10.9486 24.6164 10.9644 24.5884C10.9801 24.5604 11.0027 24.5369 11.03 24.52H11.12C11.1527 24.5111 11.1872 24.5111 11.22 24.52C11.8532 24.9231 12.5893 25.1349 13.34 25.13C13.8162 25.1395 14.2872 25.0295 14.71 24.81H14.79C14.8196 24.81 14.8488 24.8172 14.875 24.8312C14.9012 24.8451 14.9235 24.8653 14.94 24.89C15.1031 25.1397 15.3254 25.3452 15.5871 25.4883C15.8488 25.6313 16.1417 25.7075 16.44 25.71H23.59C24.0709 25.7047 24.5302 25.5093 24.8675 25.1664C25.2048 24.8235 25.3926 24.361 25.39 23.88V10.09C25.3926 9.60903 25.2048 9.14655 24.8675 8.80365C24.5302 8.46074 24.0709 8.26529 23.59 8.26001ZM10.19 24.76C10.19 24.8087 10.1714 24.8556 10.1379 24.8909C10.1044 24.9263 10.0586 24.9474 10.01 24.95H8.89997C8.85036 24.9476 8.80343 24.9268 8.76831 24.8917C8.73319 24.8566 8.7124 24.8096 8.70997 24.76V17.54C8.71253 17.4914 8.73368 17.4456 8.76904 17.4121C8.80439 17.3786 8.85127 17.3599 8.89997 17.36H9.99997C10.0477 17.36 10.0935 17.379 10.1273 17.4127C10.161 17.4465 10.18 17.4923 10.18 17.54L10.19 24.76ZM15 23.71C14.5402 24.1444 13.9324 24.3875 13.3 24.39C12.5204 24.381 11.7665 24.1098 11.16 23.62L11 23.49C10.9739 23.475 10.9526 23.453 10.9384 23.4265C10.9243 23.4 10.9179 23.37 10.92 23.34V19.45C10.9192 19.4252 10.9242 19.4005 10.9346 19.3779C10.945 19.3554 10.9606 19.3355 10.98 19.32L12.25 18.26C12.3438 18.1643 12.4558 18.0885 12.5795 18.0369C12.7032 17.9854 12.836 17.9592 12.97 17.96H14.46C14.5077 17.96 14.5535 17.979 14.5873 18.0127C14.621 18.0465 14.64 18.0923 14.64 18.14V20.37C14.64 20.4177 14.621 20.4635 14.5873 20.4973C14.5535 20.531 14.5077 20.55 14.46 20.55H13.9C13.811 20.5646 13.7302 20.6103 13.6718 20.679C13.6134 20.7477 13.5814 20.8349 13.5814 20.925C13.5814 21.0151 13.6134 21.1023 13.6718 21.171C13.7302 21.2397 13.811 21.2854 13.9 21.3H18.9C18.9953 21.2972 19.0901 21.314 19.1787 21.3492C19.2673 21.3844 19.3478 21.4373 19.4152 21.5047C19.4827 21.5722 19.5356 21.6526 19.5708 21.7412C19.606 21.8298 19.6227 21.9247 19.62 22.02C19.6227 22.2156 19.549 22.4044 19.4145 22.5464C19.28 22.6884 19.0954 22.7722 18.9 22.78H17.79C16.7756 22.7245 15.7781 23.057 15 23.71ZM24.6 23.87C24.6027 24.1521 24.4938 24.4238 24.2972 24.6261C24.1006 24.8283 23.832 24.9447 23.55 24.95H16.44C16.2647 24.9451 16.0932 24.8981 15.94 24.8128C15.7868 24.7274 15.6564 24.6064 15.56 24.46C15.5305 24.427 15.5141 24.3843 15.5141 24.34C15.5141 24.2957 15.5305 24.253 15.56 24.22C16.1668 23.7053 16.9449 23.4375 17.74 23.47H18.87C19.0756 23.4704 19.2787 23.4259 19.4653 23.3395C19.6519 23.2532 19.8173 23.127 19.95 22.97C19.9864 22.939 20.0322 22.9214 20.08 22.92H24.41C24.434 22.9185 24.458 22.9222 24.4805 22.9307C24.503 22.9393 24.5235 22.9525 24.5405 22.9695C24.5575 22.9865 24.5707 23.0069 24.5792 23.0294C24.5878 23.0519 24.5914 23.076 24.59 23.1L24.6 23.87ZM24.6 21.99C24.6 22.0377 24.581 22.0835 24.5473 22.1173C24.5135 22.151 24.4677 22.17 24.42 22.17H20.57C20.5451 22.1708 20.5204 22.1658 20.4979 22.1554C20.4753 22.1449 20.4555 22.1294 20.44 22.11C20.4232 22.095 20.41 22.0765 20.4013 22.0557C20.3926 22.0349 20.3888 22.0125 20.39 21.99C20.3847 21.6036 20.2275 21.2348 19.9524 20.9635C19.6773 20.6921 19.3064 20.54 18.92 20.54H15.57C15.5222 20.54 15.4764 20.521 15.4427 20.4873C15.4089 20.4535 15.39 20.4077 15.39 20.36V10.09C15.3887 9.95081 15.4148 9.81271 15.4668 9.6836C15.5189 9.55449 15.5959 9.43689 15.6934 9.33753C15.7909 9.23817 15.907 9.15899 16.0351 9.10451C16.1632 9.05003 16.3008 9.02132 16.44 9.02001H23.59C23.7292 9.02132 23.8668 9.05003 23.9949 9.10451C24.123 9.15899 24.2391 9.23817 24.3366 9.33753C24.4341 9.43689 24.5111 9.55449 24.5631 9.6836C24.6152 9.81271 24.6413 9.95081 24.64 10.09L24.6 21.99Z" fill="#FFF8F0"/>
<path d="M22.3201 14.26H21.0501L20.3701 12.68C20.3398 12.6073 20.2883 12.5455 20.2222 12.5027C20.1562 12.4598 20.0787 12.438 20.0001 12.44C19.9205 12.4399 19.8425 12.4624 19.7753 12.5049C19.708 12.5474 19.6542 12.6081 19.6201 12.68L19.0001 14.26H17.6801C17.5948 14.2592 17.5114 14.2851 17.4415 14.3339C17.3717 14.3827 17.3187 14.4521 17.2901 14.5324C17.2615 14.6127 17.2587 14.7 17.282 14.782C17.3052 14.864 17.3535 14.9367 17.4201 14.99L18.5001 15.84L18.0601 17.4C18.0361 17.4798 18.0377 17.5651 18.0646 17.644C18.0915 17.7229 18.1423 17.7914 18.2101 17.84C18.2795 17.8869 18.3613 17.9119 18.4451 17.9119C18.5288 17.9119 18.6106 17.8869 18.6801 17.84L20.0001 16.97L21.3301 17.86C21.3995 17.9025 21.4787 17.9266 21.5601 17.93C21.6465 17.9293 21.7305 17.9013 21.8001 17.85C21.8678 17.8014 21.9186 17.7329 21.9455 17.654C21.9724 17.5751 21.974 17.4898 21.9501 17.41L21.5001 15.87L22.5901 15C22.6529 14.9456 22.6986 14.8741 22.7217 14.7943C22.7448 14.7144 22.7442 14.6296 22.7201 14.55C22.694 14.4648 22.6408 14.3903 22.5686 14.338C22.4965 14.2857 22.4092 14.2583 22.3201 14.26Z" fill="#FFF8F0"/>
</svg>
