<svg width="34" height="34" viewBox="0 0 34 34" fill="none" xmlns="http://www.w3.org/2000/svg">
<path fill-rule="evenodd" clip-rule="evenodd" d="M33.31 17.16C33.3082 18.5568 33.1302 19.9478 32.78 21.3C32.66 21.77 32.53 22.22 32.37 22.67C31.3703 25.4956 29.6298 28.0007 27.3306 29.9234C25.0314 31.8462 22.2579 33.116 19.3 33.6L18.58 33.7C17.9392 33.7724 17.2949 33.8091 16.65 33.81C13.3574 33.808 10.1393 32.8298 7.4025 30.9991C4.66574 29.1684 2.53322 26.5673 1.27455 23.5248C0.0158889 20.4822 -0.31241 17.1348 0.331163 13.9056C0.974735 10.6765 2.56128 7.7107 4.89022 5.38316C7.21917 3.05561 10.1859 1.47085 13.4154 0.829212C16.645 0.187578 19.9922 0.517887 23.034 1.77838C26.0758 3.03887 28.6756 5.17295 30.5047 7.91081C32.3338 10.6487 33.31 13.8674 33.31 17.16Z" fill="#50CFBB"/>
<g style="mix-blend-mode:multiply">
<path fill-rule="evenodd" clip-rule="evenodd" d="M32.78 21.3C32.66 21.77 32.53 22.22 32.37 22.67C31.3703 25.4956 29.6298 28.0007 27.3306 29.9234C25.0314 31.8462 22.2579 33.1159 19.3 33.6L18.58 33.7L9 25.05L10.39 21.84V19.9L9.63 16.24L11.49 12.24L15.82 9.92999L22.42 11.59L32.78 21.3Z" fill="#D3D3D3"/>
</g>
<path d="M22.42 11.56C21.0748 10.2308 19.2939 9.43335 17.4065 9.31503C15.519 9.19671 13.6525 9.7655 12.1518 10.9163C10.6511 12.0671 9.61763 13.7222 9.24232 15.5758C8.867 17.4293 9.17521 19.3561 10.11 21L9 25.05L13.15 23.96C14.2945 24.5833 15.5768 24.9099 16.88 24.91C18.4268 24.9102 19.9389 24.4517 21.225 23.5924C22.5112 22.7331 23.5136 21.5117 24.1055 20.0827C24.6975 18.6537 24.8524 17.0812 24.5505 15.5642C24.2487 14.0471 23.5038 12.6537 22.41 11.56H22.42ZM16.89 23.56C15.7276 23.563 14.5866 23.2483 13.59 22.65L13.34 22.51L10.88 23.16L11.53 20.76L11.38 20.51C10.8429 19.6573 10.5115 18.6914 10.4118 17.6886C10.3122 16.6858 10.4471 15.6735 10.8059 14.7318C11.1647 13.7901 11.7375 12.9447 12.4791 12.2624C13.2208 11.5801 14.1109 11.0796 15.0792 10.8004C16.0475 10.5212 17.0675 10.4709 18.0585 10.6537C19.0496 10.8364 19.9845 11.247 20.7896 11.8532C21.5947 12.4593 22.2478 13.2443 22.6974 14.1463C23.1469 15.0482 23.3806 16.0423 23.38 17.05C23.3839 17.9058 23.2191 18.7539 22.895 19.5459C22.5709 20.3379 22.0937 21.0582 21.491 21.6656C20.8882 22.2731 20.1716 22.7557 19.3821 23.0859C18.5926 23.4161 17.7458 23.5874 16.89 23.59V23.56Z" fill="white"/>
<path fill-rule="evenodd" clip-rule="evenodd" d="M14.9301 13.82C14.7901 13.49 14.6301 13.49 14.4901 13.48H14.1201C14.0213 13.4805 13.9238 13.5021 13.834 13.5435C13.7443 13.5849 13.6646 13.6451 13.6001 13.72C13.3785 13.9291 13.2027 14.182 13.084 14.4626C12.9652 14.7432 12.906 15.0454 12.9101 15.35C12.9772 16.0802 13.2551 16.7751 13.7101 17.35C14.5216 18.6299 15.6799 19.6529 17.0501 20.3C18.7001 20.95 19.0501 20.82 19.3901 20.79C19.6627 20.7353 19.9209 20.6243 20.1481 20.4642C20.3754 20.304 20.5668 20.0983 20.7101 19.86C20.8427 19.5692 20.8845 19.2451 20.8301 18.93C20.8301 18.85 20.6501 18.8 20.4501 18.7C20.2501 18.6 19.3001 18.13 19.1201 18.07C18.9401 18.01 18.8101 17.97 18.6801 18.17C18.5501 18.37 18.1701 18.8 18.0601 18.93C17.9501 19.06 17.8301 19.08 17.6301 18.93C17.0529 18.6899 16.5217 18.3516 16.0601 17.93C15.6501 17.565 15.2933 17.1442 15.0001 16.68C14.8801 16.48 15.0001 16.38 15.0801 16.28C15.1601 16.18 15.2801 16.05 15.3801 15.94C15.4566 15.8382 15.5204 15.7273 15.5701 15.61C15.6 15.5584 15.6157 15.4997 15.6157 15.44C15.6157 15.3804 15.6 15.3217 15.5701 15.27C15.5701 15.17 15.1501 14.2 14.9701 13.82" fill="white"/>
</svg>
