<svg width="34" height="34" viewBox="0 0 34 34" fill="none" xmlns="http://www.w3.org/2000/svg">
<path fill-rule="evenodd" clip-rule="evenodd" d="M33.4399 16.97C33.4531 17.4215 33.4263 17.8732 33.3599 18.32C33.3751 18.5864 33.3751 18.8535 33.3599 19.12C33.292 19.7973 33.1615 20.4668 32.9699 21.12C32.1961 23.9961 30.6804 26.6184 28.5744 28.7245C26.4683 30.8305 23.846 32.3462 20.9699 33.12C20.3185 33.3188 19.6482 33.4495 18.9699 33.51C18.7199 33.51 18.4699 33.51 18.2099 33.51C17.7765 33.5758 17.3381 33.6026 16.8999 33.59C13.5785 33.6276 10.3211 32.6757 7.54258 30.8556C4.76409 29.0354 2.59029 26.4294 1.2981 23.3694C0.00591874 20.3095 -0.346161 16.9342 0.286717 13.6734C0.919594 10.4127 2.50878 7.41411 4.85183 5.05973C7.19488 2.70535 10.1857 1.10171 13.4434 0.453106C16.701 -0.195498 20.078 0.140292 23.1442 1.4177C26.2103 2.6951 28.8268 4.8563 30.6604 7.62598C32.4939 10.3957 33.4615 13.6484 33.4399 16.97Z" fill="#FFA2B7"/>
<g style="mix-blend-mode:multiply">
<path d="M33.3199 19.12C33.2521 19.7973 33.1215 20.4668 32.9299 21.12C32.1562 23.9961 30.6404 26.6185 28.5344 28.7245C26.4284 30.8305 23.806 32.3463 20.9299 33.12C20.2785 33.3189 19.6083 33.4496 18.9299 33.51L18.2799 32.87C15.1799 29.79 9.62991 24.22 9.52991 24.07C9.19013 23.4076 8.98915 22.6827 8.93929 21.9399C8.88942 21.1971 8.99172 20.4519 9.23991 19.75C9.31991 19.3 10.5599 17.15 11.2399 17.65C11.5599 17.89 12.9499 17.53 13.3199 17.44C14.1599 17.24 14.6699 18.99 15.0999 18.64C15.5299 18.29 16.3099 17.34 16.4999 17.24C17.6999 16.33 17.6499 15.95 18.0399 15.67C18.7299 15.19 15.3599 12.78 18.5199 9.95999C20.0199 8.60999 24.3999 10.27 24.7699 10.68C24.9399 10.76 30.0599 15.86 33.3199 19.12Z" fill="#D3D3D3"/>
</g>
<path d="M20.8698 17.1C20.009 17.1 19.1676 16.8446 18.452 16.3662C17.7364 15.8877 17.1789 15.2078 16.8499 14.4123C16.521 13.6169 16.4354 12.7417 16.6041 11.8976C16.7728 11.0535 17.188 10.2785 17.7974 9.67051C18.4068 9.06255 19.1828 8.64905 20.0273 8.48233C20.8717 8.31562 21.7467 8.40319 22.5414 8.73397C23.3361 9.06474 24.0147 9.62385 24.4915 10.3405C24.9683 11.0572 25.2217 11.8992 25.2198 12.76C25.2198 13.3307 25.1072 13.8959 24.8884 14.4231C24.6697 14.9503 24.3491 15.4292 23.9451 15.8323C23.541 16.2355 23.0614 16.555 22.5337 16.7725C22.006 16.99 21.4405 17.1013 20.8698 17.1ZM20.8698 9.70997C20.2787 9.71982 19.7036 9.9041 19.2169 10.2397C18.7302 10.5753 18.3534 11.0472 18.134 11.5961C17.9146 12.1451 17.8623 12.7467 17.9836 13.3253C18.105 13.9039 18.3946 14.4338 18.816 14.8483C19.2375 15.2629 19.7721 15.5437 20.3526 15.6555C20.9332 15.7672 21.5338 15.705 22.0791 15.4765C22.6243 15.248 23.09 14.8636 23.4174 14.3714C23.7449 13.8792 23.9197 13.3012 23.9198 12.71C23.9198 12.3118 23.8406 11.9175 23.6867 11.5502C23.5328 11.183 23.3074 10.85 23.0235 10.5708C22.7396 10.2915 22.4029 10.0716 22.0332 9.92381C21.6634 9.77602 21.2679 9.70333 20.8698 9.70997Z" fill="#FFF8F0"/>
<path d="M12.57 25.52C11.7092 25.522 10.8672 25.2685 10.1505 24.7918C9.43385 24.315 8.87474 23.6363 8.54396 22.8416C8.21319 22.0469 8.12562 21.172 8.29233 20.3275C8.45905 19.483 8.87255 18.707 9.48051 18.0976C10.0885 17.4883 10.8635 17.073 11.7076 16.9043C12.5517 16.7357 13.4269 16.8212 14.2223 17.1502C15.0178 17.4791 15.6977 18.0367 16.1762 18.7522C16.6546 19.4678 16.91 20.3092 16.91 21.17C16.91 22.322 16.453 23.4269 15.6394 24.2424C14.8258 25.0579 13.7219 25.5174 12.57 25.52ZM12.57 18.13C11.9766 18.13 11.3966 18.3059 10.9033 18.6356C10.4099 18.9652 10.0254 19.4338 9.79832 19.9819C9.57126 20.5301 9.51185 21.1333 9.62761 21.7153C9.74336 22.2972 10.0291 22.8318 10.4486 23.2513C10.8682 23.6709 11.4027 23.9566 11.9847 24.0724C12.5666 24.1881 13.1698 24.1287 13.718 23.9016C14.2662 23.6746 14.7347 23.2901 15.0644 22.7967C15.394 22.3034 15.57 21.7233 15.57 21.13C15.57 20.3343 15.2539 19.5713 14.6913 19.0087C14.1287 18.4461 13.3656 18.13 12.57 18.13Z" fill="#FFF8F0"/>
<path d="M12.5698 21.82C12.4843 21.8212 12.3993 21.805 12.3203 21.7723C12.2412 21.7396 12.1696 21.6912 12.1098 21.63C11.9901 21.5068 11.9231 21.3417 11.9231 21.17C11.9231 20.9982 11.9901 20.8331 12.1098 20.71L20.4198 12.3C20.4802 12.2395 20.5519 12.1915 20.6308 12.1588C20.7097 12.126 20.7944 12.1092 20.8798 12.1092C20.9653 12.1092 21.0499 12.126 21.1288 12.1588C21.2077 12.1915 21.2794 12.2395 21.3398 12.3C21.4595 12.4231 21.5265 12.5882 21.5265 12.76C21.5265 12.9317 21.4595 13.0968 21.3398 13.22L12.9998 21.63C12.8864 21.7464 12.7323 21.8145 12.5698 21.82Z" fill="#FFF8F0"/>
</svg>
