<svg width="34" height="34" viewBox="0 0 34 34" fill="none" xmlns="http://www.w3.org/2000/svg">
<path fill-rule="evenodd" clip-rule="evenodd" d="M33.45 16.78C33.4682 18.1895 33.2658 19.5932 32.85 20.94C32.113 23.8406 30.6106 26.4901 28.4997 28.6115C26.3888 30.733 23.7469 32.2486 20.85 33C19.491 33.3478 18.0928 33.5192 16.69 33.51C13.3824 33.5041 10.1508 32.5179 7.4035 30.6759C4.65621 28.834 2.51655 26.2191 1.2549 23.1616C-0.00675595 20.104 -0.333789 16.7411 0.315126 13.4978C0.964041 10.2545 2.55978 7.2763 4.9007 4.93957C7.24163 2.60284 10.2227 1.01243 13.4672 0.369331C16.7116 -0.273772 20.0739 0.0592849 23.1292 1.32642C26.1845 2.59355 28.7956 4.73788 30.6326 7.48847C32.4695 10.239 33.45 13.4724 33.45 16.78Z" fill="#8E68C0"/>
<g style="mix-blend-mode:multiply">
<path d="M32.8499 20.94C32.1129 23.8406 30.6105 26.4901 28.4996 28.6115C26.3887 30.733 23.7468 32.2486 20.8499 33C20.7699 33 20.7699 32.91 20.6799 32.83C20.4613 32.6529 20.2634 32.4516 20.0899 32.23C19.8683 32.0566 19.6671 31.8586 19.4899 31.64C19.2734 31.4606 19.0757 31.2595 18.8999 31.04C18.6961 30.8184 18.468 30.6205 18.2199 30.45C18.0499 30.2 17.7999 30.03 17.6299 29.77C17.4104 29.5942 17.2093 29.3966 17.0299 29.18C16.8113 29.0029 16.6134 28.8016 16.4399 28.58C16.2183 28.4066 16.0171 28.2086 15.8399 27.99C15.6234 27.8106 15.4257 27.6095 15.2499 27.39C15.0461 27.1684 14.818 26.9705 14.5699 26.8C14.3941 26.5561 14.1966 26.3285 13.9799 26.12C13.7604 25.9443 13.5593 25.7466 13.3799 25.53C13.1613 25.3529 12.9634 25.1516 12.7899 24.93C12.5683 24.7566 12.3671 24.5586 12.1899 24.34C11.9734 24.1606 11.7757 23.9595 11.5999 23.74C10.7341 22.9706 10.0346 22.0322 9.54456 20.9827C9.05448 19.9331 8.7841 18.7944 8.75002 17.6366C8.71593 16.4787 8.91887 15.3261 9.34635 14.2496C9.77384 13.173 10.4169 12.1951 11.2359 11.3761C12.055 10.557 13.0328 9.91397 14.1094 9.48649C15.186 9.059 16.3386 8.85607 17.4964 8.89016C18.6543 8.92424 19.793 9.19462 20.8425 9.68469C21.8921 10.1748 22.8304 10.8742 23.5999 11.74C23.8161 11.9161 24.0138 12.1138 24.1899 12.33C24.3958 12.5524 24.6236 12.7534 24.8699 12.93C25.0465 13.1763 25.2475 13.4041 25.4699 13.61C25.6861 13.7861 25.8838 13.9838 26.0599 14.2C26.2785 14.3772 26.4764 14.5785 26.6499 14.8C26.8714 14.9735 27.0727 15.1714 27.2499 15.39C27.4661 15.5661 27.6638 15.7638 27.8399 15.98C28.0458 16.2024 28.2736 16.4034 28.5199 16.58C28.6965 16.8263 28.8975 17.0541 29.1199 17.26C29.3361 17.4361 29.5338 17.6338 29.7099 17.85C29.9285 18.0272 30.1264 18.2285 30.2999 18.45C30.5214 18.6235 30.7227 18.8214 30.8999 19.04C31.1161 19.2161 31.3138 19.4138 31.4899 19.63C31.6958 19.8524 31.9236 20.0534 32.1699 20.23C32.3465 20.4763 32.5475 20.7041 32.7699 20.91L32.8499 20.94Z" fill="#D3D3D3"/>
</g>
<path d="M16.6899 8.53002C15.604 8.52767 14.5284 8.74129 13.5258 9.15847C12.5232 9.57564 11.6136 10.188 10.8499 10.96C10.6548 11.1423 10.4742 11.3395 10.3099 11.55C10.0538 11.8646 9.82312 12.199 9.61989 12.55C8.83473 13.8396 8.41943 15.3202 8.41943 16.83C8.41943 18.3398 8.83473 19.8205 9.61989 21.11C9.82312 21.4611 10.0538 21.7954 10.3099 22.11C10.4742 22.3205 10.6548 22.5178 10.8499 22.7C11.6194 23.4594 12.5316 24.0589 13.5339 24.4639C14.5363 24.869 15.6089 25.0716 16.6899 25.06C18.8832 25.06 20.9867 24.1887 22.5377 22.6378C24.0886 21.0869 24.9599 18.9834 24.9599 16.79C24.9599 14.5967 24.0886 12.4932 22.5377 10.9422C20.9867 9.39132 18.8832 8.52002 16.6899 8.52002V8.53002ZM10.3299 13.53C10.9126 12.4071 11.782 11.4583 12.8499 10.78L13.6699 10.26L13.1999 11.06C12.7496 11.8735 12.4131 12.745 12.1999 13.65L12.1499 13.84H10.1499L10.3299 13.53ZM9.70989 18.53C9.45668 17.4378 9.45668 16.3022 9.70989 15.21V15.02H11.9999V15.3C11.8799 16.3432 11.8799 17.3968 11.9999 18.44V18.72H9.75989L9.70989 18.53ZM12.8499 22.93C11.782 22.2517 10.9126 21.303 10.3299 20.18L10.1399 19.82H12.1399L12.1899 20.01C12.4048 20.9145 12.7412 21.7858 13.1899 22.6L13.6299 23.43L12.8499 22.93ZM16.1499 24L15.7799 23.82C15.0825 23.405 14.5199 22.7973 14.1599 22.07C13.8246 21.434 13.5693 20.7588 13.3999 20.06L13.3099 19.75H16.1499V24ZM16.1499 18.72H13.1499V18.5C13.0165 17.4174 13.0165 16.3226 13.1499 15.24V15.02H16.1499V18.72ZM16.1499 13.92H13.3099L13.3999 13.61C13.5747 12.9353 13.8298 12.2839 14.1599 11.67C14.5199 10.9427 15.0825 10.335 15.7799 9.92002L16.1499 9.74002V13.92ZM20.5399 10.81C21.6078 11.4883 22.4772 12.4371 23.0599 13.56L23.2499 13.92H21.1999L21.1499 13.73C20.9366 12.825 20.6002 11.9535 20.1499 11.14L19.6799 10.29L20.5399 10.81ZM17.2399 9.74002L17.6099 9.92002C18.3073 10.335 18.8698 10.9427 19.2299 11.67C19.5583 12.2613 19.8167 12.8889 19.9999 13.54L20.0899 13.85H17.2399V9.74002ZM17.2399 15.02H20.2399V15.24C20.3733 16.3226 20.3733 17.4174 20.2399 18.5V18.72H17.2399V15.02ZM17.6099 23.82L17.2399 24V19.75H20.0799L19.9999 20.06C19.8251 20.7348 19.5699 21.3861 19.2399 22C18.8771 22.7287 18.311 23.3365 17.6099 23.75V23.82ZM23.0599 20.18C22.4772 21.303 21.6078 22.2517 20.5399 22.93L19.7499 23.43L20.1899 22.6C20.6386 21.7858 20.975 20.9145 21.1899 20.01L21.2399 19.82H23.2899L23.0599 20.18ZM23.6299 18.72H21.3899V18.44C21.5099 17.3968 21.5099 16.3432 21.3899 15.3V15.02H23.6299L23.6799 15.21C23.9331 16.3022 23.9331 17.4378 23.6799 18.53L23.6299 18.72Z" fill="#FFF8F0"/>
</svg>
