<svg width="34" height="35" viewBox="0 0 34 35" fill="none" xmlns="http://www.w3.org/2000/svg">
<path fill-rule="evenodd" clip-rule="evenodd" d="M33.4401 17.2501C33.4283 18.0759 33.3715 18.9004 33.2701 19.7201C33.2499 19.8818 33.2199 20.0421 33.1801 20.2001C32.7063 22.8476 31.6008 25.3417 29.9574 27.4708C28.314 29.5999 26.1812 31.3011 23.7401 32.4301L23.3401 32.6201C21.2641 33.5749 19.0051 34.0663 16.7201 34.0601C13.4029 34.07 10.1573 33.0958 7.39379 31.2609C4.63028 29.426 2.47304 26.8127 1.19493 23.7516C-0.0831873 20.6905 -0.424756 17.3191 0.213425 14.0639C0.851607 10.8086 2.44087 7.81575 4.78019 5.46384C7.11951 3.11193 10.1038 1.50662 13.3556 0.850977C16.6073 0.195329 19.9805 0.518794 23.0484 1.78046C26.1163 3.04212 28.7412 5.1853 30.5909 7.93892C32.4406 10.6925 33.4322 13.9329 33.4401 17.2501Z" fill="#50CFBB"/>
<g style="mix-blend-mode:multiply">
<path d="M33.1801 20.2001C32.7063 22.8475 31.6008 25.3417 29.9574 27.4708C28.314 29.5998 26.1812 31.3011 23.7401 32.4301C23.0501 31.7301 22.5001 31.1901 22.4701 31.1601C22.2615 30.9929 22.0735 30.8016 21.9101 30.5901C21.6856 30.4455 21.4946 30.2546 21.3501 30.0301C21.1226 29.8859 20.9283 29.695 20.7801 29.4701C20.5712 29.3032 20.3832 29.1118 20.2201 28.9001C19.9898 28.7337 19.7756 28.5462 19.5801 28.3401C19.3733 28.1423 19.1826 27.9283 19.0101 27.7001C18.8039 27.534 18.6162 27.3462 18.4501 27.1401C18.227 26.9897 18.0365 26.7958 17.8901 26.5701C17.6656 26.4255 17.4746 26.2346 17.3301 26.0101C17.1003 25.8687 16.9055 25.6773 16.7601 25.4501C16.5201 25.2901 16.3601 25.0401 16.1201 24.8801C15.9139 24.6846 15.7265 24.4703 15.5601 24.2401C15.3506 24.0743 15.1595 23.8866 14.9901 23.6801C14.7629 23.5347 14.5714 23.3398 14.4301 23.1101C14.2056 22.9655 14.0146 22.7746 13.8701 22.5501C13.6425 22.4059 13.4483 22.215 13.3001 21.9901C13.0912 21.8232 12.9032 21.6318 12.7401 21.4201C12.5098 21.2537 12.2956 21.0662 12.1001 20.8601C11.9401 20.6201 11.7001 20.4601 11.5301 20.2201C11.3056 20.0755 11.1146 19.8846 10.9701 19.6601C10.6368 19.4106 10.3633 19.09 10.1696 18.7215C9.97585 18.353 9.8667 17.946 9.8501 17.5301C9.8501 15.9301 10.7801 15.7301 12.3901 15.7301C12.8825 15.7808 13.3386 16.0124 13.6701 16.3801L20.0801 12.5001L21.4801 12.7601C21.4801 11.2401 19.6601 9.41005 21.1901 9.41005C21.6265 9.4085 22.0572 9.50895 22.4478 9.70341C22.8385 9.89787 23.1783 10.1809 23.4401 10.5301C23.6463 10.6961 23.834 10.8839 24.0001 11.0901C24.2063 11.2561 24.394 11.4439 24.5601 11.6501C24.7773 11.8413 24.9689 12.0597 25.1301 12.3001C25.3546 12.4446 25.5456 12.6355 25.6901 12.8601C25.9384 13.0025 26.156 13.1928 26.3301 13.4201C26.5396 13.5858 26.7307 13.7735 26.9001 13.9801C27.1042 14.152 27.2917 14.3429 27.4601 14.5501C27.6663 14.7161 27.854 14.9039 28.0201 15.1101C28.2479 15.2865 28.4411 15.5034 28.5901 15.7501C28.8132 15.9004 29.0037 16.0943 29.1501 16.3201C29.3984 16.4625 29.616 16.6528 29.7901 16.8801C29.9973 17.0484 30.1881 17.2359 30.3601 17.4401L30.9201 18.0101C31.1263 18.1761 31.314 18.3639 31.4801 18.5701C31.5801 18.5901 32.3201 19.3301 33.1801 20.2001Z" fill="#D3D3D3"/>
</g>
<path d="M23.6502 22.8801C23.6502 23.5246 23.3942 24.1427 22.9384 24.5984C22.4827 25.0541 21.8647 25.3101 21.2202 25.3101C20.5757 25.3101 19.9576 25.0541 19.5019 24.5984C19.0462 24.1427 18.7902 23.5246 18.7902 22.8801C18.7799 22.7336 18.7799 22.5866 18.7902 22.4401L18.8502 22.1001L13.8502 19.0201L13.5702 19.2301C13.1505 19.5494 12.6375 19.7216 12.1102 19.7201C11.4657 19.7201 10.8476 19.4641 10.3919 19.0084C9.93619 18.5527 9.68018 17.9346 9.68018 17.2901C9.68018 16.6457 9.93619 16.0276 10.3919 15.5719C10.8476 15.1162 11.4657 14.8601 12.1102 14.8601C12.6375 14.8587 13.1505 15.0309 13.5702 15.3501L13.8502 15.5501L18.8502 12.4701L18.7902 12.1401C18.7798 11.9903 18.7798 11.84 18.7902 11.6901C18.7902 11.2095 18.9327 10.7397 19.1997 10.3401C19.4667 9.94049 19.8462 9.62903 20.2903 9.44511C20.7343 9.26118 21.2229 9.21306 21.6942 9.30682C22.1656 9.40059 22.5986 9.63202 22.9384 9.97186C23.2783 10.3117 23.5097 10.7447 23.6035 11.2161C23.6972 11.6874 23.6491 12.176 23.4652 12.6201C23.2813 13.0641 22.9698 13.4436 22.5702 13.7106C22.1706 13.9776 21.7008 14.1201 21.2202 14.1201C20.6929 14.1216 20.1798 13.9494 19.7602 13.6301L19.4902 13.4301L14.4902 16.5101L14.5602 16.8501C14.5705 16.9966 14.5705 17.1436 14.5602 17.2901C14.5701 17.4366 14.5701 17.5836 14.5602 17.7301L14.4902 18.0601L19.4902 21.1501L19.7602 20.9401C20.1798 20.6209 20.6929 20.4487 21.2202 20.4501C21.8647 20.4501 22.4827 20.7062 22.9384 21.1619C23.3942 21.6176 23.6502 22.2357 23.6502 22.8801Z" fill="#FFF8F0"/>
</svg>
