<svg width="34" height="35" viewBox="0 0 34 35" fill="none" xmlns="http://www.w3.org/2000/svg">
<path fill-rule="evenodd" clip-rule="evenodd" d="M33.3599 17.47V17.79C33.3599 17.91 33.3599 18.03 33.3599 18.15C33.3599 18.63 33.2999 19.09 33.2499 19.58C33.2499 19.7 33.2499 19.83 33.2499 19.96L33.1899 20.36C32.6945 23.0883 31.531 25.6514 29.8035 27.8204C28.076 29.9894 25.8382 31.6967 23.2899 32.79C21.9734 33.3936 20.5805 33.8142 19.1499 34.04H18.8499C18.131 34.1411 17.4059 34.1912 16.6799 34.19H15.9299C12.6569 34.0509 9.49676 32.9533 6.84214 31.0336C4.18752 29.1139 2.15535 26.4566 0.998022 23.3918C-0.159306 20.327 -0.390793 16.9898 0.332313 13.7945C1.05542 10.5993 2.70126 7.68691 5.06541 5.41906C7.42955 3.15122 10.4078 1.62785 13.6304 1.03817C16.8529 0.448495 20.1776 0.818489 23.1917 2.1022C26.2057 3.38591 28.7762 5.52677 30.5839 8.25889C32.3917 10.991 33.357 14.194 33.3599 17.47Z" fill="#FFC800"/>
<g style="mix-blend-mode:multiply">
<path d="M33.3399 18.12C33.3399 18.6 33.2799 19.06 33.2299 19.55C33.2299 19.67 33.2299 19.8 33.2299 19.93L33.1699 20.33C32.681 23.0616 31.5227 25.6294 29.7985 27.8038C28.0744 29.9782 25.8382 31.6913 23.2899 32.79C21.9734 33.3936 20.5805 33.8142 19.1499 34.04H18.8499L7.17993 22.4V13.66H9.42993L9.53993 15.39L11.8099 13.91L13.0699 9.57998L18.9199 6.78998L24.9199 9.78998L33.3399 18.12Z" fill="#D3D3D3"/>
</g>
<path d="M23.7098 20.6C23.6863 20.556 23.6784 20.5053 23.6875 20.4563C23.6966 20.4072 23.7221 20.3627 23.7598 20.33C24.7525 19.5126 25.5226 18.4576 25.9984 17.2629C26.4741 16.0682 26.6403 14.7726 26.4813 13.4965C26.3223 12.2205 25.8434 11.0053 25.089 9.96384C24.3347 8.92241 23.3293 8.08854 22.1664 7.53969C21.0034 6.99084 19.7207 6.74481 18.4372 6.82447C17.1537 6.90413 15.9112 7.30688 14.8251 7.99532C13.7389 8.68376 12.8444 9.63555 12.2246 10.7623C11.6048 11.889 11.2798 13.1541 11.2798 14.44C11.2757 15.6683 11.5781 16.8782 12.1598 17.96H13.1598C12.3857 16.7066 12.0449 15.2336 12.1898 13.7676C12.3348 12.3016 12.9574 10.9238 13.962 9.84626C14.9666 8.76874 16.2974 8.05119 17.7497 7.80401C19.202 7.55684 20.6953 7.79374 21.9998 8.47827C23.3042 9.1628 24.3476 10.257 24.9694 11.5925C25.5911 12.9281 25.7568 14.4309 25.4409 15.8698C25.125 17.3087 24.345 18.6039 23.2209 19.5562C22.0969 20.5084 20.6911 21.0649 19.2198 21.14H18.8798C18.5719 21.139 18.2644 21.1156 17.9598 21.07H17.7498C17.4451 21.0221 17.1443 20.952 16.8498 20.86C16.5591 20.7545 16.2752 20.631 15.9998 20.49H15.8998C15.6171 20.343 15.3433 20.1794 15.0798 20L14.8798 19.85C14.5857 19.9899 14.3075 20.1609 14.0498 20.36C14.0878 20.3924 14.1141 20.4363 14.1249 20.485C14.1358 20.5337 14.1305 20.5846 14.1098 20.63L11.6198 25.68C11.5756 25.7523 11.5523 25.8353 11.5523 25.92C11.5523 26.0047 11.5756 26.0878 11.6198 26.16C11.6628 26.2148 11.7173 26.2594 11.7796 26.2905C11.8418 26.3216 11.9102 26.3385 11.9798 26.34H12.0698L14.3498 25.92C14.3899 25.9194 14.4294 25.9292 14.4644 25.9485C14.4995 25.9677 14.5289 25.9959 14.5498 26.03L15.6898 28.03C15.7318 28.0989 15.7905 28.156 15.8604 28.1962C15.9303 28.2364 16.0092 28.2584 16.0898 28.26C16.1719 28.2599 16.2523 28.2363 16.3214 28.192C16.3905 28.1477 16.4455 28.0846 16.4798 28.01L19.3698 22.2C19.3884 22.1664 19.4141 22.1373 19.4453 22.1148C19.4764 22.0924 19.5121 22.077 19.5498 22.07C20.6048 21.971 21.627 21.6507 22.5498 21.13C22.5858 21.1197 22.6239 21.1197 22.6598 21.13H22.7198C22.778 21.1491 22.8276 21.188 22.8598 21.24L24.7698 24.79C24.7919 24.8261 24.8036 24.8677 24.8036 24.91C24.8036 24.9524 24.7919 24.9939 24.7698 25.03C24.7492 25.0559 24.7235 25.0773 24.6942 25.0928C24.665 25.1083 24.6328 25.1175 24.5998 25.12L23.0998 24.89H22.9998C22.9199 24.8883 22.841 24.9089 22.7721 24.9495C22.7032 24.9902 22.647 25.0492 22.6098 25.12L21.8598 26.42C21.8414 26.4541 21.8139 26.4824 21.7803 26.5018C21.7468 26.5212 21.7086 26.531 21.6698 26.53C21.63 26.5301 21.5911 26.5188 21.5574 26.4976C21.5238 26.4763 21.4969 26.446 21.4798 26.41L20.6998 24.79C20.6625 24.7128 20.6044 24.6475 20.5319 24.6015C20.4595 24.5556 20.3756 24.5308 20.2898 24.53C20.2206 24.5151 20.149 24.5151 20.0798 24.53C20.0262 24.556 19.9782 24.5923 19.9387 24.6369C19.8993 24.6816 19.869 24.7336 19.8498 24.79C19.8048 24.9023 19.8048 25.0277 19.8498 25.14L21.1998 27.88C21.2361 27.9531 21.2915 28.015 21.3602 28.059C21.4289 28.1031 21.5083 28.1276 21.5898 28.13C21.6709 28.1303 21.7505 28.1092 21.8208 28.0688C21.891 28.0284 21.9493 27.9702 21.9898 27.9L23.1398 25.9C23.1583 25.8659 23.1858 25.8376 23.2193 25.8182C23.2528 25.7988 23.2911 25.789 23.3298 25.79L25.6198 26.21H25.6998C25.7697 26.21 25.8386 26.1937 25.9011 26.1625C25.9636 26.1313 26.0179 26.0859 26.0598 26.03C26.114 25.9636 26.1476 25.8828 26.1565 25.7975C26.1654 25.7122 26.1492 25.6262 26.1098 25.55L23.7098 20.6ZM18.3798 22.36L16.3798 26.41C16.3633 26.4471 16.3367 26.4789 16.3032 26.5018C16.2697 26.5248 16.2304 26.538 16.1898 26.54C16.1498 26.5407 16.1103 26.5309 16.0752 26.5116C16.0401 26.4923 16.0107 26.4642 15.9898 26.43L15.2498 25.12C15.2093 25.0498 15.151 24.9916 15.0808 24.9512C15.0105 24.9108 14.9309 24.8897 14.8498 24.89H14.7598L13.3398 25.15C13.3051 25.1489 13.271 25.1403 13.2399 25.1248C13.2089 25.1092 13.1815 25.0871 13.1598 25.06C13.1377 25.0239 13.126 24.9824 13.126 24.94C13.126 24.8977 13.1377 24.8561 13.1598 24.82L14.9598 21.18C14.9708 21.1514 14.9883 21.1257 15.0108 21.1049C15.0334 21.084 15.0604 21.0687 15.0898 21.06H15.1598C15.1958 21.0497 15.2339 21.0497 15.2698 21.06L15.8498 21.34H15.9198H15.9698C16.4479 21.5506 16.9475 21.7082 17.4598 21.81H17.5598H17.6598C17.8476 21.8507 18.0381 21.8774 18.2298 21.89C18.2651 21.8948 18.2988 21.9077 18.3282 21.9276C18.3577 21.9476 18.3821 21.9742 18.3995 22.0052C18.417 22.0362 18.427 22.0708 18.4288 22.1064C18.4306 22.1419 18.4241 22.1774 18.4098 22.21L18.3798 22.36Z" fill="#FFF8F0"/>
<path d="M20.5417 17.5869C20.3556 17.5878 20.1736 17.5327 20.0193 17.4287L18.8955 16.6374L17.8033 17.4208C17.6426 17.531 17.4522 17.59 17.2572 17.59C17.0623 17.59 16.8719 17.531 16.7112 17.4208C16.5555 17.3068 16.4387 17.1477 16.3764 16.9652C16.3141 16.7826 16.3094 16.5853 16.3629 16.4L16.7349 15.0865L15.8643 14.3823C15.7087 14.2615 15.5948 14.095 15.5388 13.9061C15.4828 13.7172 15.4875 13.5156 15.5522 13.3295C15.6168 13.1434 15.7382 12.9823 15.8993 12.8688C16.0604 12.7553 16.253 12.6952 16.45 12.6969H17.4788L18.0328 11.3676C18.1047 11.1962 18.2257 11.0498 18.3807 10.947C18.5356 10.8442 18.7175 10.7896 18.9034 10.79C19.0891 10.7906 19.2706 10.8457 19.4253 10.9483C19.58 11.051 19.7013 11.1968 19.774 11.3676L20.3517 12.7048H21.3569C21.5523 12.7062 21.7426 12.7678 21.9018 12.8813C22.0609 12.9948 22.1812 13.1546 22.2461 13.339C22.311 13.5233 22.3175 13.7232 22.2645 13.9113C22.2116 14.0995 22.1019 14.2667 21.9504 14.3902L21.0482 15.0865L21.4281 16.3763C21.4814 16.5636 21.4758 16.7627 21.4121 16.9467C21.3484 17.1307 21.2296 17.2907 21.0719 17.4049C20.9188 17.5199 20.7332 17.5835 20.5417 17.5869ZM18.8955 15.5375C18.9967 15.5396 19.0954 15.5697 19.1804 15.6246L20.3992 16.4158L19.9877 15.047C19.9573 14.9498 19.9569 14.8457 19.9865 14.7483C20.0162 14.651 20.0745 14.5648 20.1539 14.501L21.1194 13.7097H20.0193C19.9161 13.7183 19.813 13.6917 19.7267 13.6342C19.6405 13.5768 19.5763 13.4918 19.5445 13.3932L18.9034 11.9452L18.294 13.4091C18.2541 13.5022 18.188 13.5817 18.1036 13.6379C18.0193 13.6941 17.9205 13.7245 17.8192 13.7256H16.6953L17.645 14.4693C17.725 14.5328 17.7842 14.6186 17.8152 14.7158C17.8462 14.8131 17.8476 14.9173 17.8192 15.0153L17.4155 16.4396L18.6027 15.6483C18.6876 15.584 18.7893 15.5456 18.8955 15.5375Z" fill="#FFF8F0"/>
<path d="M19.2298 18.69C19.2283 18.4666 19.1751 18.2465 19.0745 18.0471C18.9739 17.8476 18.8286 17.674 18.6498 17.54C18.3954 17.3426 18.0818 17.2369 17.7598 17.24H12.7598C12.6617 17.24 12.5676 17.279 12.4982 17.3484C12.4288 17.4178 12.3898 17.5119 12.3898 17.61C12.3898 17.7091 12.4284 17.8042 12.4976 17.8752C12.5667 17.9462 12.6608 17.9874 12.7598 17.99H17.7598C17.8392 17.9756 17.9205 17.9756 17.9998 17.99C18.1413 18.0352 18.2644 18.1248 18.3508 18.2455C18.4373 18.3662 18.4825 18.5115 18.4798 18.66C18.4826 18.8555 18.4089 19.0444 18.2744 19.1864C18.1399 19.3284 17.9552 19.4122 17.7598 19.42H16.6298C16.2664 19.4191 15.9041 19.4593 15.5498 19.54C15.3157 19.597 15.0879 19.6774 14.8698 19.78C14.5757 19.9199 14.2975 20.0908 14.0398 20.29L13.8798 20.41L13.7498 20.51C13.3175 20.8864 12.763 21.0925 12.1898 21.09C11.3926 21.0948 10.6185 20.8227 9.99981 20.32L9.81981 20.2C9.79515 20.1835 9.77495 20.1612 9.76099 20.135C9.74703 20.1089 9.73976 20.0797 9.73981 20.05V16.16C9.73903 16.1352 9.74405 16.1105 9.75446 16.0879C9.76488 16.0653 9.7804 16.0455 9.79981 16.03L11.0498 14.92C11.1099 14.8618 11.1771 14.8114 11.2498 14.77C11.4061 14.6732 11.586 14.6213 11.7698 14.62H11.8698V13.87H11.7698C11.5968 13.8713 11.4249 13.8983 11.2598 13.95C10.9883 14.0273 10.7407 14.1717 10.5398 14.37L10.0598 14.8C10.0234 14.831 9.97757 14.8486 9.92981 14.85H9.85981C9.82732 14.8349 9.79974 14.811 9.78028 14.7809C9.76082 14.7508 9.75026 14.7158 9.74981 14.68V13.68C9.74981 13.5819 9.71083 13.4878 9.64144 13.4184C9.57206 13.349 9.47794 13.31 9.37981 13.31H7.17981C7.08248 13.3125 6.98983 13.3523 6.92099 13.4212C6.85214 13.49 6.81234 13.5827 6.80981 13.68V22.02C6.81234 22.1173 6.85214 22.21 6.92099 22.2788C6.98983 22.3477 7.08248 22.3875 7.17981 22.39H9.40981C9.50794 22.39 9.60206 22.351 9.67144 22.2816C9.74083 22.2122 9.77981 22.1181 9.77981 22.02V21.39C9.78008 21.3579 9.78847 21.3264 9.80421 21.2984C9.81995 21.2704 9.84252 21.2469 9.86981 21.23H9.95981C9.99239 21.22 10.0272 21.22 10.0598 21.23C10.6982 21.6298 11.4365 21.8413 12.1898 21.84C12.6629 21.8495 13.1307 21.7395 13.5498 21.52L13.6998 21.45C13.9476 21.3213 14.1793 21.1635 14.3898 20.98V20.92C14.7426 20.6302 15.151 20.4158 15.5898 20.29C15.9155 20.2013 16.2524 20.1609 16.5898 20.17H17.7198C17.9252 20.1691 18.1279 20.124 18.3143 20.0377C18.5007 19.9514 18.6663 19.826 18.7998 19.67C18.9327 19.5432 19.0391 19.3913 19.1129 19.223C19.1867 19.0548 19.2264 18.8737 19.2298 18.69ZM8.99981 21.47C8.99988 21.5187 8.98124 21.5656 8.94775 21.6009C8.91425 21.6363 8.86845 21.6574 8.81981 21.66H7.73981C7.69118 21.6574 7.64538 21.6363 7.61188 21.6009C7.57839 21.5656 7.55975 21.5187 7.55981 21.47V14.25C7.55975 14.2013 7.57839 14.1544 7.61188 14.1191C7.64538 14.0837 7.69118 14.0626 7.73981 14.06H8.84981C8.89845 14.0626 8.94425 14.0837 8.97775 14.1191C9.01124 14.1544 9.02988 14.2013 9.02981 14.25L8.99981 21.47Z" fill="#FFF8F0"/>
</svg>
