<svg width="36" height="36" viewBox="0 0 36 36" fill="none" xmlns="http://www.w3.org/2000/svg">
<path fill-rule="evenodd" clip-rule="evenodd" d="M4.5 6H15C15.825 6 16.5 6.675 16.5 7.5C16.5 8.325 15.825 9 15 9H4.5C3.675 9 3 8.325 3 7.5C3 6.675 3.675 6 4.5 6ZM9 16.5H15C15.825 16.5 16.5 17.175 16.5 18C16.5 18.825 15.825 19.5 15 19.5H9C8.175 19.5 7.5 18.825 7.5 18C7.5 17.175 8.175 16.5 9 16.5ZM15 27H12C11.175 27 10.5 27.675 10.5 28.5C10.5 29.325 11.175 30 12 30H15C15.825 30 16.5 29.325 16.5 28.5C16.5 27.675 15.825 27 15 27ZM28.5003 24.9657L30.4578 23.0757C31.0548 22.5012 32.0043 22.5177 32.5788 23.1132C33.1548 23.7102 33.1383 24.6597 32.5428 25.2342L28.0428 29.5797C27.7503 29.8587 27.3753 29.9997 27.0003 29.9997C26.6163 29.9997 26.2323 29.8542 25.9398 29.5602L21.4398 25.0602C20.8533 24.4752 20.8533 23.5257 21.4398 22.9392C22.0248 22.3542 22.9743 22.3542 23.5608 22.9392L25.5003 24.8787V11.0352L23.5428 12.9237C22.9473 13.4997 21.9978 13.4817 21.4218 12.8862C20.8458 12.2907 20.8623 11.3412 21.4578 10.7652L25.9578 6.4197C26.5488 5.8557 27.4833 5.8587 28.0608 6.4392L32.5608 10.9392C33.1458 11.5257 33.1458 12.4752 32.5608 13.0602C32.2683 13.3542 31.8843 13.4997 31.5003 13.4997C31.1163 13.4997 30.7323 13.3542 30.4398 13.0602L28.5003 11.1207V24.9657Z" fill="#37C5EF"/>
</svg>
