<svg width="60" height="60" viewBox="0 0 60 60" fill="none" xmlns="http://www.w3.org/2000/svg">
<circle cx="30" cy="30" r="30" fill="white"/>
<path fill-rule="evenodd" clip-rule="evenodd" d="M37.5508 45.6667C25.8516 45.6667 16.3341 36.1477 16.3341 24.45C16.3341 22.1795 18.1803 20.3334 20.4508 20.3334C20.6234 20.3334 20.7944 20.3444 20.9686 20.3666L22.6485 27.6832C22.4405 27.7914 22.2178 27.9078 22.0007 28.0214L21.7966 28.1281C20.4318 28.8406 19.3551 29.4043 19.9204 30.6472C21.7824 35.945 26.0558 40.22 31.2903 42.0567C32.6239 42.5911 33.1414 41.6015 33.8569 40.2334L33.8664 40.2153C33.9487 40.0595 34.0334 39.8969 34.1173 39.7358L34.118 39.7345C34.1856 39.6046 34.2527 39.4758 34.3176 39.3524L41.6326 41.0307C41.6564 41.2017 41.6675 41.3743 41.6675 41.55C41.6675 43.8205 39.8213 45.6667 37.5508 45.6667ZM44.4399 39.1877C44.261 38.6731 43.8303 38.2868 43.2983 38.1649L33.8553 35.9973C33.3344 35.8801 32.7897 36.0274 32.405 36.3979C32.1786 36.6132 32.1738 36.6195 31.1446 38.5844C27.7721 37.0486 25.0092 34.2952 23.4196 30.853C25.3813 29.8254 25.3861 29.8207 25.603 29.5959C25.9735 29.2095 26.1223 28.6649 26.0036 28.1455L23.836 18.7025C23.7141 18.1705 23.3261 17.7383 22.8116 17.5594C22.4347 17.4295 22.0468 17.3314 21.6636 17.2696C21.2694 17.2015 20.8625 17.1667 20.4508 17.1667C16.4339 17.1667 13.1675 20.4331 13.1675 24.45C13.1675 37.8957 24.1051 48.8334 37.5508 48.8334C41.5661 48.8334 44.8341 45.5669 44.8341 41.55C44.8341 41.1415 44.7977 40.7378 44.7312 40.3451C44.6679 39.9493 44.5697 39.5614 44.4399 39.1877ZM30.5835 26.6667C33.2023 26.6667 35.3335 28.7979 35.3335 31.4167C35.3335 32.2923 36.0413 33 36.9168 33C37.7924 33 38.5002 32.2923 38.5002 31.4167C38.5002 27.0514 34.9488 23.5 30.5835 23.5C29.7095 23.5 29.0002 24.2078 29.0002 25.0834C29.0002 25.9589 29.7095 26.6667 30.5835 26.6667ZM41.6668 31.4167C41.6668 25.3066 36.6936 20.3334 30.5835 20.3334C29.7095 20.3334 29.0002 19.6256 29.0002 18.75C29.0002 17.8744 29.7095 17.1667 30.5835 17.1667C38.4416 17.1667 44.8335 23.5586 44.8335 31.4167C44.8335 32.2923 44.1258 33 43.2502 33C42.3746 33 41.6668 32.2923 41.6668 31.4167Z" fill="#43D57A"/>
</svg>
