<svg width="24" height="24" viewBox="0 0 24 24" fill="none" xmlns="http://www.w3.org/2000/svg">
<path d="M20.16 6.83976C17.28 2.39976 11.4 1.07976 6.83998 3.83976C2.39998 6.59976 0.95998 12.5998 3.83998 17.0398L4.07998 17.3998L3.11998 20.9998L6.71998 20.0398L7.07998 20.2798C8.63998 21.1198 10.32 21.5998 12 21.5998C13.8 21.5998 15.6 21.1198 17.16 20.1598C21.6 17.2798 22.92 11.3998 20.16 6.83976V6.83976ZM17.64 16.0798C17.16 16.7998 16.56 17.2798 15.72 17.3998C15.24 17.3998 14.64 17.6398 12.24 16.6798C10.2 15.7198 8.51998 14.1598 7.31998 12.3598C6.59998 11.5198 6.23998 10.4398 6.11998 9.35976C6.11998 8.39976 6.47998 7.55976 7.07998 6.95976C7.31998 6.71976 7.55998 6.59976 7.79998 6.59976H8.39998C8.63998 6.59976 8.87998 6.59976 8.99998 7.07976C9.23998 7.67976 9.83998 9.11976 9.83998 9.23976C9.95998 9.35976 9.95998 9.59976 9.83998 9.71976C9.95998 9.95976 9.83998 10.1998 9.71998 10.3198C9.59998 10.4398 9.47998 10.6798 9.35998 10.7998C9.11998 10.9198 8.99998 11.1598 9.11998 11.3998C9.59998 12.1198 10.2 12.8398 10.8 13.4398C11.52 14.0398 12.24 14.5198 13.08 14.8798C13.32 14.9998 13.56 14.9998 13.68 14.7598C13.8 14.5198 14.4 13.9198 14.64 13.6798C14.88 13.4398 15 13.4398 15.24 13.5598L17.16 14.5198C17.4 14.6398 17.64 14.7598 17.76 14.8798C17.88 15.2398 17.88 15.7198 17.64 16.0798V16.0798Z" fill="white"/>
</svg>
