<svg width="36" height="36" viewBox="0 0 36 36" fill="none" xmlns="http://www.w3.org/2000/svg">
<path fill-rule="evenodd" clip-rule="evenodd" d="M17.2906 5.84959C20.5636 2.56909 25.8451 1.97659 29.4931 4.82959C33.8626 8.24659 34.1491 14.6141 30.3526 18.4196L28.2181 20.5571C27.6286 21.1481 26.6746 21.1481 26.0851 20.5571C25.4956 19.9676 25.4956 19.0091 26.0851 18.4196L28.2181 16.2806C30.7006 13.7951 30.5656 9.66259 27.8101 7.35559C25.3696 5.31109 21.7066 5.70109 19.4581 7.95409L17.5486 9.86659C16.9606 10.4576 16.0036 10.4576 15.4156 9.86659C14.8261 9.27709 14.8201 8.32459 15.6811 7.46209L17.2906 5.84959ZM19.9394 13.9395L13.9394 19.9395C13.3529 20.526 13.3529 21.474 13.9394 22.0605C14.2319 22.353 14.6159 22.5 14.9999 22.5C15.3839 22.5 15.7679 22.353 16.0604 22.0605L22.0604 16.0605C22.6469 15.474 22.6469 14.526 22.0604 13.9395C21.4739 13.353 20.5259 13.353 19.9394 13.9395ZM18.4204 26.0948L16.5094 28.0013C14.2579 30.2468 10.5874 30.6338 8.14539 28.5983C5.38689 26.3003 5.25039 22.1813 7.73589 19.7018L9.87339 17.5718C10.4629 16.9838 10.4629 16.0298 9.87339 15.4403C9.28389 14.8538 8.32689 14.8538 7.73589 15.4403L5.82339 17.3498C2.56539 20.5988 1.99389 25.8248 4.81089 29.4608C8.21739 33.8603 14.6074 34.1573 18.4204 30.3563L20.5579 28.2263C21.1474 27.6368 21.1474 26.6843 20.5579 26.0948C19.9669 25.5053 19.0114 25.5053 18.4204 26.0948Z" fill="#37C5EF"/>
</svg>
