<svg width="36" height="36" viewBox="0 0 36 36" fill="none" xmlns="http://www.w3.org/2000/svg">
<path fill-rule="evenodd" clip-rule="evenodd" d="M17.0615 30H18.938V28.8495C18.938 27.447 19.8005 26.187 21.134 25.6365C22.514 25.062 24.0215 25.344 25.0145 26.343L25.823 27.1545L27.155 25.8225L26.3375 25.0065C25.343 24.0135 25.0625 22.5075 25.622 21.171C25.622 21.171 25.6235 21.1695 25.6235 21.168L25.64 21.126C26.186 19.8015 27.4475 18.9375 28.85 18.9375H29.999V17.0625H28.85C27.4475 17.0625 26.186 16.2 25.637 14.8665C25.0595 13.4865 25.343 11.979 26.342 10.9845L27.1535 10.176L25.823 8.8455L25.0055 9.663C24.0125 10.656 22.508 10.9365 21.1715 10.3785C19.802 9.813 18.938 8.553 18.938 7.1505V6H17.0615V7.1505C17.0615 8.553 16.199 9.813 14.8655 10.3635C13.487 10.941 11.9795 10.6575 10.985 9.657L10.1765 8.8455L8.84452 10.1775L9.66202 10.9935C10.655 11.9865 10.937 13.4925 10.3775 14.829C9.81352 16.1985 8.55202 17.0625 7.14952 17.0625H5.99902V18.9375H7.14952C8.55202 18.9375 9.81352 19.8 10.3625 21.1335C10.94 22.5135 10.6565 24.021 9.65752 25.0155L8.84602 25.824L10.1765 27.1545L10.994 26.337C11.987 25.344 13.4915 25.0635 14.828 25.6215C16.1975 26.187 17.0615 27.447 17.0615 28.8495V30ZM19.4135 33H16.5755C15.1895 33 14.0615 31.872 14.0615 30.486V28.8495C14.0615 28.629 13.886 28.4775 13.721 28.41C13.505 28.3215 13.274 28.3035 13.115 28.458L11.96 29.6145C10.976 30.5955 9.37702 30.5985 8.39452 29.6145L6.38452 27.6045C5.90752 27.1275 5.64652 26.4945 5.64652 25.8195C5.64802 25.146 5.91052 24.513 6.38902 24.036L7.54102 22.8885C7.69852 22.731 7.68202 22.5 7.61152 22.3335C7.52152 22.113 7.37152 21.9375 7.14952 21.9375H5.52352C4.13152 21.9375 2.99902 20.8065 2.99902 19.4145V16.5765C2.99902 15.189 4.12702 14.0625 5.51452 14.0625H7.14952C7.37002 14.0625 7.52152 13.8855 7.58902 13.7205C7.67902 13.5045 7.69702 13.272 7.54102 13.116L6.38452 11.961C5.40352 10.9755 5.40352 9.3765 6.38452 8.3955L8.39452 6.3855C8.87152 5.9085 9.50302 5.6475 10.1765 5.6475H10.1795C10.853 5.6475 11.4875 5.91 11.963 6.3885L13.1105 7.542C13.268 7.701 13.5005 7.683 13.667 7.6125C13.886 7.521 14.0615 7.371 14.0615 7.1505V5.5245C14.0615 4.1325 15.194 3 16.586 3H19.424C20.81 3 21.938 4.128 21.938 5.514V7.1505C21.938 7.371 22.1135 7.5225 22.2785 7.59C22.496 7.68 22.727 7.6995 22.8845 7.542L24.0395 6.3855C25.0235 5.4045 26.6225 5.4015 27.605 6.3855L29.6165 8.397C30.0935 8.8725 30.3545 9.5055 30.353 10.1805C30.353 10.8525 30.0905 11.487 29.612 11.9625L28.4585 13.1115C28.301 13.269 28.3175 13.5 28.388 13.6665C28.478 13.887 28.628 14.0625 28.85 14.0625H30.476C31.868 14.0625 32.999 15.1935 32.999 16.5855V19.4235C32.999 20.811 31.8725 21.9375 30.485 21.9375H28.85C28.6295 21.9375 28.478 22.1145 28.4105 22.2795C28.409 22.281 28.391 22.326 28.3895 22.329C28.3205 22.4955 28.3025 22.728 28.4585 22.884L29.615 24.039C30.596 25.0245 30.596 26.6235 29.615 27.6045L27.605 29.6145C27.128 30.0915 26.4965 30.3525 25.823 30.3525H25.82C25.1465 30.3525 24.512 30.09 24.0365 29.6115L22.889 28.458C22.7315 28.3005 22.4975 28.3185 22.3325 28.3875C22.1135 28.479 21.938 28.629 21.938 28.8495V30.4755C21.938 31.8675 20.8055 33 19.4135 33ZM17.9998 15.75C16.7593 15.75 15.7498 16.7595 15.7498 18C15.7498 19.2405 16.7593 20.25 17.9998 20.25C19.2403 20.25 20.2498 19.2405 20.2498 18C20.2498 16.7595 19.2403 15.75 17.9998 15.75ZM17.9998 23.25C15.1048 23.25 12.7498 20.895 12.7498 18C12.7498 15.105 15.1048 12.75 17.9998 12.75C20.8948 12.75 23.2498 15.105 23.2498 18C23.2498 20.895 20.8948 23.25 17.9998 23.25Z" fill="#37C5EF"/>
</svg>
