<svg width="74" height="48" viewBox="0 0 74 48" fill="none" xmlns="http://www.w3.org/2000/svg">
<g clip-path="url(#clip0_577_1303)">
<path fill-rule="evenodd" clip-rule="evenodd" d="M36.9436 46.6022C17.3416 46.6022 1.45232 39.0006 1.45232 29.6256C1.45232 20.2491 17.3421 12.6475 36.9436 12.6475C56.545 12.6475 72.4354 20.2491 72.4354 29.6256C72.4354 39.0006 56.545 46.6016 36.9436 46.6016M36.943 11.2496C16.5398 11.2496 0 19.4768 0 29.6256C0 39.7734 16.5398 48 36.943 48C57.3479 48 73.8877 39.7734 73.8877 29.6256C73.8877 19.4763 57.3479 11.2496 36.943 11.2496Z" fill="#313790"/>
<path fill-rule="evenodd" clip-rule="evenodd" d="M19.9124 28.2661H19.1229V25.0458H20.2329C20.4581 25.0458 21.1453 25.0458 21.1453 26.6202C21.1453 28.2213 19.9251 28.2661 19.9129 28.2661M23.3579 23.2159C22.6307 22.4906 21.6756 22.5018 21.0367 22.4965L15.7093 22.497V35.4405H19.1058V30.3983L19.2032 30.4037C20.3212 30.4597 22.1931 30.5599 23.3749 29.4362C24.0319 28.8111 24.3651 27.8991 24.3651 26.7263C24.3651 25.0405 24.0361 23.8922 23.3579 23.2159ZM25.5491 35.6719H28.7652V25.4351H25.5491V35.6719ZM27.1564 24.6319C26.2109 24.6319 25.4416 23.8618 25.4416 22.9146C25.4416 21.9663 26.2109 21.1957 27.1558 21.1957C28.1029 21.1957 28.8738 21.9669 28.8738 22.9151C28.8738 23.8623 28.1029 24.6325 27.1564 24.6325M45.2007 29.1717C45.2624 28.7733 45.4189 28.1605 45.8134 27.7818C46.07 27.5338 46.4006 27.4111 46.7935 27.4303C47.8993 27.4597 48.2522 28.5589 48.3614 29.1717H45.2007ZM51.5929 29.8223C51.5929 28.8426 50.7975 25.185 46.9096 25.185C43.0382 25.185 41.6583 27.921 41.6583 30.4815C41.6583 33.0063 43.0195 35.9562 46.8558 35.9562C49.3154 35.9562 50.5989 35.0495 50.6522 35.0101L50.8119 34.8949L50.8108 32.4495L50.2146 32.8501C50.2023 32.8591 49.0247 33.6399 47.6038 33.6399C46.6908 33.6399 46.0237 33.3973 45.6207 32.9205C45.2097 32.4351 45.1458 31.7957 45.1506 31.4165H51.5929V29.8223ZM52.2663 35.6549H55.7332V22.3194H52.2663V35.6549ZM15.7087 39.393H55.7332V37.1023H15.7087V39.393Z" fill="#313790"/>
<path fill-rule="evenodd" clip-rule="evenodd" d="M41.9197 35.7963H38.4444L36.6476 33.4096L34.952 35.7963H29.6437L34.3163 30.4613L30.6195 25.4352H33.8409L36.1913 28.4491L55.9941 4.66347L60.2185 0L56.6004 5.13173L38.225 31.0581L41.9197 35.7963Z" fill="#313790"/>
</g>
<defs>
<clipPath id="clip0_577_1303">
<rect width="74" height="48" fill="white"/>
</clipPath>
</defs>
</svg>
