<svg xmlns="http://www.w3.org/2000/svg" width="139" height="90" viewBox="0 0 139 90">
    <g fill="none" fill-rule="evenodd">
        <g fill="#313790">
            <g>
                <path d="M69.394 87.379c-36.82 0-66.666-14.253-66.666-31.831 0-17.581 29.847-31.834 66.666-31.834 36.819 0 66.667 14.253 66.667 31.834 0 17.578-29.848 31.83-66.667 31.83m-.001-66.285C31.068 21.093 0 36.519 0 55.548 0 74.575 31.068 90 69.393 90c38.328 0 69.396-15.425 69.396-34.452 0-19.03-31.068-34.455-69.396-34.455"/>
                <path d="M37.403 52.999H35.92v-6.038h2.085c.423 0 1.714 0 1.714 2.952 0 3.002-2.292 3.086-2.315 3.086m6.471-9.469c-1.366-1.36-3.16-1.339-4.36-1.349l-10.007.001v24.269h6.38v-9.454l.183.01c2.1.105 5.616.293 7.836-1.814 1.234-1.172 1.86-2.882 1.86-5.081 0-3.161-.618-5.314-1.892-6.582M47.991 66.885L54.032 66.885 54.032 47.691 47.991 47.691zM51.01 46.185c-1.776 0-3.221-1.444-3.221-3.22 0-1.778 1.445-3.223 3.22-3.223 1.779 0 3.227 1.446 3.227 3.224 0 1.776-1.448 3.22-3.226 3.22M84.904 54.697c.116-.747.41-1.896 1.151-2.606.482-.465 1.103-.695 1.841-.659 2.077.055 2.74 2.116 2.945 3.265h-5.937zm12.007 1.22c0-1.837-1.494-8.695-8.797-8.695-7.272 0-9.864 5.13-9.864 9.931 0 4.734 2.557 10.265 9.763 10.265 4.62 0 7.031-1.7 7.131-1.774l.3-.216-.002-4.585-1.12.751c-.023.017-2.235 1.481-4.904 1.481-1.715 0-2.968-.455-3.725-1.349-.772-.91-.892-2.109-.883-2.82h12.101v-2.989zM98.176 66.853L104.688 66.853 104.688 41.849 98.176 41.849zM29.507 73.862L104.688 73.862 104.688 69.567 29.507 69.567z"/>
                <path d="M78.741 67.118L72.213 67.118 68.838 62.643 65.653 67.118 55.682 67.118 64.459 57.115 57.515 47.691 63.566 47.691 67.981 53.342 105.178 8.744 113.113 0 106.317 9.622 71.801 58.234z"/>
            </g>
        </g>
    </g>
</svg>
